<svg width="20" height="20" viewBox="0 0 20 20" fill="none" xmlns="http://www.w3.org/2000/svg">
<path d="M3.3331 0H16.6669C18.5084 0 20.0007 1.49227 20.0007 3.3331V16.6669C20.0007 18.5077 18.5084 20 16.6669 20H3.3331C1.49227 20 2.4998e-07 18.5077 2.4998e-07 16.6669V3.3331C-0.000705317 1.49227 1.49227 0 3.3331 0Z" fill="#E62C3A"/>
<path d="M7.11087 5.7056H2.6665V14.2973H6.96129C7.91733 14.2973 8.77389 14.2726 9.53167 13.6453C10.1025 13.1747 10.4009 12.5115 10.4009 11.7149C10.4009 10.6523 9.86681 9.94041 8.81199 9.60244C9.55636 9.2165 9.9663 8.7219 9.9663 7.86463C9.96559 6.27287 8.63772 5.7056 7.11087 5.7056ZM4.92573 9.08456V7.41871H6.51467C7.13557 7.41871 7.71836 7.53937 7.71836 8.25128C7.71836 8.83055 7.35852 9.08385 6.57605 9.08385H4.92573V9.08456ZM4.92573 12.5235V10.5564H6.68824C7.40862 10.5564 8.06621 10.7137 8.06621 11.5463C8.06621 12.3908 7.44531 12.5235 6.75033 12.5235H4.92573Z" fill="white"/>
<path d="M14.0018 5.70219H11.6156V7.4393H13.2356C14.2029 7.4393 14.6664 7.76527 14.6664 8.44121C14.6664 9.34645 14.0258 9.50308 13.2603 9.50308H11.6149V11.0955H13.0472C14.1267 11.0955 14.5282 11.4822 14.641 12.4954C14.7045 13.0634 14.6791 13.7746 14.9056 14.2939H17.2777C17.0266 13.9679 17.0266 13.6179 16.9899 13.2193C16.8763 11.9521 16.8516 11.8561 16.7126 11.3975C16.5496 10.8422 16.1474 10.4683 15.5823 10.2863C16.4988 9.88903 16.9638 9.17711 16.9638 8.18791C16.9652 6.51994 15.6542 5.72195 14.0018 5.70219Z" fill="white"/>
</svg>
