<svg width="24" height="20" viewBox="0 0 24 20" fill="none" xmlns="http://www.w3.org/2000/svg">
<path d="M12.7799 15.6838C12.5736 15.8838 12.3673 16.0757 12.1651 16.2716C11.505 16.9043 10.849 17.5411 10.1806 18.1657C9.89596 18.431 9.57002 18.6433 9.17395 18.725C9.11619 18.7372 9.05843 18.7372 8.98829 18.7454C8.98829 18.7086 8.98004 18.676 8.98416 18.6474C9.05017 17.8065 9.11619 16.9697 9.1822 16.1287C9.24409 15.3736 9.30185 14.6143 9.36373 13.8591C9.38024 13.6428 9.39261 13.4264 9.41737 13.2141C9.42149 13.1692 9.4545 13.1202 9.49163 13.0917C10.4282 12.2426 11.3647 11.3976 12.3013 10.5485C14.7314 8.35237 17.1656 6.15213 19.5957 3.95597C19.6575 3.89882 19.7194 3.84167 19.7689 3.77636C19.8721 3.63757 19.8267 3.52735 19.6575 3.49469C19.4843 3.46204 19.3234 3.49469 19.1748 3.58042C19.0387 3.65798 18.9067 3.74778 18.7705 3.83351C14.6819 6.38073 10.5891 8.92795 6.50045 11.4752C6.38492 11.5486 6.29003 11.5691 6.14975 11.5282C4.39217 10.9894 2.63459 10.4587 0.877013 9.92806C0.699605 9.87499 0.518071 9.82601 0.35304 9.74437C-0.0224056 9.56067 -0.0966696 9.25451 0.121997 8.90346C0.258147 8.68711 0.46031 8.54423 0.687228 8.45034C1.23183 8.22175 1.78056 8.0054 2.33341 7.79313C5.31635 6.65015 8.30341 5.51124 11.2905 4.37234C14.9789 2.95178 18.6756 1.53937 22.3764 0.131056C22.525 0.0739065 22.6817 0.0371678 22.8344 0.0126753C23.4739 -0.0893769 23.8823 0.445376 23.969 0.878077C24.035 1.21281 23.9855 1.54346 23.9153 1.87002C23.445 4.04169 22.9788 6.21336 22.5126 8.38503C22.0299 10.6302 21.5471 12.8753 21.0644 15.1205C20.8086 16.3206 20.5528 17.5207 20.2888 18.7168C20.2352 18.9576 20.1609 19.1985 20.0536 19.4189C19.8143 19.921 19.4141 20.0925 18.8736 19.9537C18.5848 19.8802 18.3167 19.7536 18.0732 19.574C16.3363 18.2923 14.5952 17.0186 12.8541 15.7409C12.8335 15.7246 12.8088 15.7083 12.7757 15.6838H12.7799Z" fill="white"/>
</svg>
