<svg width="20" height="21" viewBox="0 0 20 21" fill="none" xmlns="http://www.w3.org/2000/svg">
<path d="M0 20.1858L1.74497 14.9546C1.47255 14.3472 1.13754 13.7618 0.91666 13.1213C-1.62348 5.82849 4.73424 -1.37594 12.2737 0.225458C18.2743 1.49921 21.6427 8.08149 19.1946 13.7397C16.8975 19.052 10.4993 21.2313 5.40792 18.4445L0 20.1858ZM2.53646 17.6935L5.66194 16.6922C10.0317 19.5526 16.0139 17.6236 17.8325 12.7311C20.1076 6.5979 14.7255 0.420571 8.3567 1.84526C2.65426 3.11901 0.13621 9.90377 3.53779 14.6527L2.53646 17.6935Z" fill="white"/>
<path d="M6.85099 5.01859C6.9872 5.01123 7.39583 5.037 7.52836 5.06277C7.77133 5.10694 7.84127 5.29101 7.92963 5.4898C8.20573 6.11564 8.36771 6.83718 8.6659 7.4667C8.90887 7.95632 7.78605 8.69627 7.78237 8.96501C7.78237 9.12331 8.11001 9.6387 8.21309 9.797C8.79475 10.6953 9.59729 11.461 10.5287 11.9837C10.6833 12.0721 11.2539 12.374 11.3938 12.3887C11.5042 12.3997 11.5852 12.3519 11.6699 12.2893C11.9423 12.0942 12.2847 11.5383 12.5424 11.2806C12.7817 11.0413 12.8774 11.1112 13.1719 11.2217C13.6541 11.4058 14.5561 11.9027 15.0052 12.1862C15.0752 12.2304 15.2224 12.304 15.2445 12.3813C15.4764 13.8355 14.0517 14.7963 12.7375 14.7595C11.957 14.7374 10.0354 13.8612 9.35432 13.4195C7.64984 12.3077 5.12811 9.3037 5.28273 7.16851C5.33795 6.43223 6.01532 5.0554 6.84731 5.01491L6.85099 5.01859Z" fill="white"/>
</svg>
